<?xml version="1.0" encoding="utf-8"?>
<!-- Generator: Adobe Illustrator 21.1.0, SVG Export Plug-In . SVG Version: 6.00 Build 0)  -->
<svg version="1.1" xmlns="http://www.w3.org/2000/svg" xmlns:xlink="http://www.w3.org/1999/xlink" x="0px" y="0px"
	 viewBox="0 0 96.4 28.3" style="enable-background:new 0 0 96.4 28.3;" xml:space="preserve">
<style type="text/css">
	.st0{fill:#10508F;}
	.st1{fill:#FFFFFF;}
	.st2{font-family:'Futura-Medium';}
	.st3{font-size:9.7057px;}
	.st4{display:none;}
	.st5{display:inline;fill:#3E9DD7;}
	.st6{display:inline;}
	.st7{display:inline;fill:#E23F41;}
</style>
<g id="Layer_1">
	<path class="st0" d="M82.3,27.5H13.8c-7.2,0-13-5.9-13-13v-0.8c0-7.2,5.9-13,13-13l68.5,0c7.2,0,13,5.9,13,13v0.8
		C95.3,21.6,89.4,27.5,82.3,27.5z"/>
	<path class="st1" d="M18.6,12.4c0,0.8,0,1.6,0,2.4c-1,0-1.9,0-2.9,0c0,0.1,0,0.2,0,0.3c0,1,0,2.1,0,3.1c0,1.3,0,2.6,0,3.9
		c-0.9,0-1.8,0-2.8,0c0,0,0-0.1,0-0.1c0-2.3,0-4.7,0-7c0-0.1,0-0.1,0-0.2c-0.8,0-1.7,0-2.5,0c0-0.8,0-1.6,0-2.4c0.8,0,1.7,0,2.5,0
		c0-0.3,0-0.6,0-0.9c0-0.4,0-0.9,0.1-1.3c0.3-1.4,1-2.3,2.4-2.8c0.2,0,0.3-0.1,0.5-0.1c0.9,0,1.8,0,2.7,0c0,0.9,0,1.7,0,2.6
		c-0.7,0-1.4,0-2.1,0c-0.5,0-0.7,0.2-0.8,0.6c0,0.6,0,1.3,0,1.9C16.7,12.4,17.6,12.4,18.6,12.4z"/>
	<g>
		<text transform="matrix(1 0 0 1 30.7129 18.2294)" class="st1 st2 st3">Facebook</text>
	</g>
</g>
<g id="Layer_2" class="st4">
	<path class="st5" d="M82.3,27.5H13.9c-7.2,0-13-5.9-13-13v-0.8c0-7.2,5.9-13,13-13h68.5c7.2,0,13,5.9,13,13v0.8
		C95.4,21.6,89.5,27.5,82.3,27.5z"/>
	<g id="zJVDB1.tif_2_" class="st6">
		<g>
			<path class="st1" d="M30.7,7.7c-0.3,0.8-0.8,1.5-1.5,2c0.2,0,0.3,0,0.5-0.1c0.2,0,0.3-0.1,0.5-0.1c0.2,0,0.3-0.1,0.5-0.2
				c0.2-0.1,0.3-0.1,0.5-0.2c-0.1,0.2-0.3,0.4-0.4,0.5c-0.4,0.4-0.8,0.8-1.3,1.2c-0.1,0.1-0.1,0.1-0.1,0.2c0.1,1.8-0.3,3.4-1.1,5
				c-0.7,1.4-1.7,2.6-2.9,3.5c-0.9,0.7-1.9,1.2-3.1,1.6c-1.5,0.4-2.9,0.6-4.5,0.4c-1.5-0.2-2.8-0.7-4-1.5c0,0,0,0-0.1,0
				c1.9,0.2,3.7-0.3,5.2-1.5c-0.8,0-1.4-0.3-2-0.7c-0.6-0.5-1-1-1.3-1.8c0.5,0.1,1.1,0.1,1.6-0.1c-2.1-0.5-2.9-2.3-2.8-3.6
				c0.5,0.3,1,0.4,1.6,0.4c-0.8-0.6-1.3-1.3-1.5-2.2c-0.2-0.9-0.1-1.8,0.4-2.6c1.9,2.3,4.4,3.5,7.4,3.7c0-0.2,0-0.4-0.1-0.7
				c0-0.7,0.1-1.3,0.4-1.9c0.5-0.8,1.1-1.4,2-1.6C25.9,7.2,27,7.4,28,8.2c0.1,0.1,0.2,0.2,0.3,0.3c0.1,0.1,0.1,0.1,0.2,0.1
				c0.7-0.2,1.4-0.4,2-0.8C30.6,7.7,30.7,7.7,30.7,7.7z"/>
		</g>
	</g>
	<g class="st6">
		<text transform="matrix(1 0 0 1 42.1058 18.2428)" class="st1 st2 st3">Twitter</text>
	</g>
</g>
<g id="Layer_3" class="st4">
	<path class="st7" d="M82.3,27.5H13.8c-7.2,0-13-5.9-13-13v-0.8c0-7.2,5.9-13,13-13h68.5c7.2,0,13,5.9,13,13v0.8
		C95.3,21.6,89.4,27.5,82.3,27.5z"/>
	<g id="Z1sUjm_1_" class="st6">
		<g>
			<path class="st1" d="M21.9,9.7c-0.6,0.7-1.2,1.4-1.8,2c-2.2-1.6-4.4-1.1-5.6,0c-1.4,1.2-1.8,3.1-1.1,4.8c0.7,1.8,2.5,2.7,4.6,2.5
				c1.5-0.1,2.6-1.1,2.9-2.5c-1.2,0-2.4,0-3.6,0c0-0.9,0-1.8,0-2.7c2.2,0,4.3,0,6.5,0c0.6,5-2.5,8.3-7,7.9c-3.8-0.3-6.5-3.3-6.5-7
				c0-3.3,2.8-6.3,6.1-6.7c1.8-0.2,3.5,0.2,5,1.2C21.5,9.4,21.7,9.5,21.9,9.7z"/>
			<path class="st1" d="M25.5,13.7c0.7,0,1.3,0,2,0c0-0.7,0-1.3,0-2c0.6,0,1.1,0,1.7,0c0,0.7,0,1.3,0,2c0.6,0,1.1,0,1.6,0
				c0.3,0,0.4,0.1,0.4,0.4c0.1,1.3,0.1,1.3-1.2,1.3c-0.3,0-0.5,0-0.9,0c0,0.7,0,1.3,0,2c-0.6,0-1.1,0-1.7,0c0-0.6,0-1.3,0-2
				c-0.7,0-1.3,0-2,0C25.5,14.8,25.5,14.3,25.5,13.7z"/>
		</g>
	</g>
	<g class="st6">
		<text transform="matrix(1 0 0 1 39.9606 18.32)" class="st1 st2 st3">Google +</text>
	</g>
</g>
</svg>
