<?xml version="1.0" encoding="utf-8"?>
<!-- Generator: Adobe Illustrator 21.1.0, SVG Export Plug-In . SVG Version: 6.00 Build 0)  -->
<svg version="1.1" id="Layer_1" xmlns="http://www.w3.org/2000/svg" xmlns:xlink="http://www.w3.org/1999/xlink" x="0px" y="0px"
	 viewBox="0 0 56.7 56.7" style="enable-background:new 0 0 56.7 56.7;" xml:space="preserve">
<style type="text/css">
	.st0{fill:#ED3165;}
</style>
<g id="fDvuL9_2_">
	<g>
		<path class="st0" d="M11.6,24.5c-2.1-0.6-3.5-1.9-4.1-4.1c-0.6-2.4,0.4-4.7,2.4-5.9c1.3-0.8,2.8-1,4.3-0.7c0.2,0.1,0.3,0,0.5-0.2
			c1.7-2.8,4.1-4.7,7.2-5.8c2.4-0.8,4.9-1,7.4-0.9c2,0.1,3.9,0.5,5.7,1.3c1.4,0.6,2.6,1.4,3.8,2.4c1,0.9,1.8,1.9,2.4,3.1
			c0.1,0.2,0.2,0.2,0.4,0.1c1.7-0.4,3.4-0.1,4.8,1c2.4,1.8,2.8,5.6,0.8,7.9c-0.8,0.9-1.8,1.5-2.9,1.8c0,0.7,0,1.5,0,2.2
			c0,1.8-0.1,3.6-0.4,5.4c-0.3,1.7-0.7,3.4-1.3,5.1c-0.4,1-0.9,2.1-1.5,3c-0.6,0.9-1.2,1.8-2,2.5c-0.8,0.8-1.7,1.4-2.6,2.1
			c-0.2,0.2-0.4,0.3-0.5,0.5c-1.6,2.1-3.7,3.3-6.3,3.7c-2.4,0.4-4.7,0-6.8-1.2c-1.2-0.7-2.3-1.6-3.1-2.8c-0.1-0.1-0.1-0.2-0.2-0.2
			c-1.2-0.7-2.3-1.6-3.2-2.7c-0.9-1-1.6-2.2-2.2-3.4c-0.9-1.8-1.5-3.8-1.9-5.8c-0.4-1.9-0.5-3.7-0.6-5.6
			C11.6,26.5,11.6,25.5,11.6,24.5z M20.5,39.3c0,0.4,0,1,0,1.6c0,0.1,0.1,0.3,0.2,0.4c2.7,1.7,5.6,2.1,8.7,1.7
			c1.9-0.3,3.6-0.9,5.3-1.8c0.4-0.2,0.5-0.5,0.5-0.9c-0.1-2.3-0.2-4.5-0.8-6.7c-0.4-1.9-1.1-3.8-2.3-5.4c-2.1-2.7-6-2.9-8.3-0.4
			c-1.2,1.3-1.8,2.8-2.3,4.4C21,34.4,20.7,36.8,20.5,39.3z M36.4,31.4c0.5-1,0.9-1.9,1.4-2.9c0.8-1.9,1.4-3.9,1.5-5.9
			c0-1.2-0.1-2.4-0.8-3.5c-0.5-0.7-1.1-1.2-1.8-1.7c-1-0.7-2-1-3.2-0.8c-1,0.2-2,0.5-3,0.8c-1.4,0.5-2.8,0.8-4.3,0.3
			c-0.9-0.3-1.8-0.6-2.6-0.9c-1.5-0.5-2.9-0.4-4.2,0.5c-1.2,0.8-2.2,1.8-2.5,3.2c-0.3,1.2-0.2,2.3,0,3.5c0.4,2.3,1.3,4.5,2.3,6.7
			c0.1,0.2,0.3,0.5,0.4,0.7c0.3-0.7,0.5-1.4,0.8-2.1c0.8-1.7,1.8-3.2,3.3-4.2c2.3-1.5,4.7-1.7,7.2-0.7c2,0.8,3.3,2.4,4.3,4.3
			C35.6,29.5,36,30.4,36.4,31.4z M34,44.1c-3.9,1.6-7.8,1.9-11.8,0.4C25.3,48.1,31.5,47.7,34,44.1z"/>
		<path class="st0" d="M29.5,29.6c0-0.5,0.1-0.9,0.4-1.3c0.3-0.4,0.8-0.5,1.2-0.1c0.7,0.7,0.7,2.4-0.1,3c-0.4,0.3-0.8,0.3-1.1-0.1
			C29.6,30.6,29.5,30.2,29.5,29.6z"/>
		<path class="st0" d="M26.4,29.7c-0.2,0.4-0.3,0.9-0.5,1.2c-0.3,0.5-0.9,0.5-1.3,0c-0.5-0.7-0.5-2,0-2.7c0.4-0.5,0.9-0.5,1.3,0
			C26.2,28.6,26.4,29.1,26.4,29.7C26.4,29.6,26.4,29.7,26.4,29.7z"/>
		<path class="st0" d="M22.4,21.6c0,1-0.8,1.7-1.7,1.7c-1,0-1.7-0.8-1.7-1.7c0-0.9,0.8-1.7,1.7-1.7C21.6,19.9,22.4,20.6,22.4,21.6z"
			/>
		<path class="st0" d="M33.4,21.5c0-1,0.7-1.7,1.7-1.7c1,0,1.7,0.8,1.7,1.7c0,0.9-0.8,1.7-1.7,1.7C34.2,23.2,33.4,22.5,33.4,21.5z"
			/>
	</g>
</g>
</svg>
